<?xml version="1.0" encoding="UTF-8"?>
<svg xmlns="http://www.w3.org/2000/svg" xmlns:xlink="http://www.w3.org/1999/xlink" version="1.1" viewBox="0 0 500 500">
  <!-- Generator: Adobe Illustrator 29.8.1, SVG Export Plug-In . SVG Version: 2.1.1 Build 2)  -->
  <defs>
    <style>
      .st0 {
        fill: none;
      }

      .st1 {
        fill: #f0c16a;
      }

      .st2 {
        fill: #f2c36b;
      }

      .st3 {
        isolation: isolate;
      }

      .st4 {
        fill: #e1efef;
      }

      .st5, .st6 {
        fill: #dbdbdb;
        mix-blend-mode: multiply;
      }

      .st7 {
        fill: #fff;
      }

      .st8 {
        fill: #06adc0;
      }

      .st9 {
        fill: #f06258;
      }

      .st10 {
        fill: #0489a6;
      }

      .st11 {
        fill: #cedddd;
      }

      .st6 {
        opacity: .3;
      }

      .st12 {
        fill: #5ebfbf;
      }

      .st13 {
        fill: #204474;
      }

      .st14 {
        clip-path: url(#clippath);
      }

      .st15 {
        fill: #1a1940;
      }

      .st16 {
        fill: #ffa68c;
      }
    </style>
    <clipPath id="clippath">
      <path class="st0" d="M389.64,354.33c-4.47-2.79-4.75-11.68-9.07-13.98-12.02,2.19-12.7,1.97-18.07,2.94-9.57,1.72-19.11,4.79-28.55,7.13-21.72,5.4-43.44,10.79-65.16,16.19-35.19,8.75-70.39,17.49-105.58,26.24-3.03.75-6.06,1.53-9.1,2.26-4.13-16.95-8.25-33.9-12.38-50.86-5.47-22.48-11.57-44.83-16.71-67.21-.25-1.09-.52-2.24-1.32-3.02-.66-.63-1.57-.91-2.44-1.18-34.52-10.66-61.5-47.26-46-82.62,16.91-38.55,53.22-68.99,79.49-101.47,1.37-1.69,2.75-3.42,3.5-5.46,1.07-2.92.71-6.13.68-9.24-.05-5.09-.4-11.84,5.48-13.94,1.86-.66,4.12-.73,5.36-2.27.8-1,.94-2.36,1.06-3.63.55-5.77,1.53-11.5,2.92-17.12.31-1.27.69-2.6,1.62-3.51,2.99-2.91,18.38-.09,22.96.67,10.48,1.74,14.3,7.48,10.84,17.56-5.72,16.69-11.92,34.62-17.96,51.73-1.28,3.62-8.36,16.97-5.07,19.34,3.28,2.36,16.47-4.7,20.04-5.58,9.06-2.25,18.12-4.49,27.18-6.74,13.12-3.25,34.03-4.16,40.93-17.95,2.21-4.43,3.26-9.37,5.46-13.8,8.27-16.62,29.41-21.22,47.77-23.92,9.31-1.37,21.28-2.72,28.55,4.71,3.69,3.77,2.76,7.91,5.25,11.79,3.19,4.99,7.89,5.76,12.97,8.07,7.52,3.42,11.52,11.02,12.07,18.93.03.36,16.72-12.77,18.25-13.66,8.44-4.95,17.56-4.56,24.38,2.73,6.15,6.57,11.79,13.76,15.49,21.96,9.55,21.16,10.23,46.92-1.76,66.99-.76,1.28-1.65,2.61-3.04,3.17-.94.38-2,.35-3.01.31-7.16-.27-14.32-.54-21.48-.81,2.54.1,11.45,20.13,12.86,23.43,4.72,11.03,9.68,21.9,13.73,33.2,7.83,21.87,15.67,48.23,10.38,71.35-4.12,18.05-4.94,42.31-24.18,51.69-10.02,4.89-22.17,3.27-32.37-1.22-2.09-.92-4.06-2.03-5.97-3.22Z"/>
    </clipPath>
  </defs>
  <g class="st3">
    <g id="OBJECTS">
      <g>
        <circle class="st4" cx="431.52" cy="198.31" r="22.82" transform="translate(146.97 578.53) rotate(-77.87)"/>
        <path class="st7" d="M431.51,192.76c-4.77-7.1-12.49-2.43-10.4,3.13,1.55,4.12,10.44,11.87,10.6,11.73.16.13,8.83-7.86,10.27-12.02,1.94-5.61-5.91-10.07-10.48-2.84Z"/>
      </g>
      <g>
        <rect class="st6" x="81.95" y="95.59" width="318.06" height="338.79" transform="translate(-56.79 65.94) rotate(-13.96)"/>
        <g>
          <rect class="st4" x="91.79" y="78.1" width="318.06" height="338.79" transform="translate(-52.28 67.79) rotate(-13.96)"/>
          <polygon class="st13" points="402.7 333.33 154.11 395.11 93.31 145.37 341.89 83.59 402.7 333.33"/>
        </g>
      </g>
      <g class="st14">
        <g>
          <g>
            <path class="st10" d="M286.02,113.91s-16.4,0-18.03-4.92c-1.64-4.92,31.7-12.02,54.1-14.21,22.41-2.19,53.01-4.92,56.29,0,3.28,4.92-36.07,14.21-47.55,16.4-11.48,2.19-44.81,2.73-44.81,2.73Z"/>
            <path class="st15" d="M313.35,96.42s-22.41-1.64-34.98,15.3c-12.57,16.94-14.21,19.13-37.71,16.94-23.5-2.19-34.43,13.12-30.06,43.72,110.39,36.07,128.98,42.63,128.98,42.63,0,0,17.49-3.83,22.95-27.33,5.46-23.5-12.02-49.73-14.76-53.56-2.73-3.83-34.43-37.71-34.43-37.71Z"/>
          </g>
          <g>
            <path class="st16" d="M116.6,148.89l54.1-66.13s-7.65-13.12-1.64-15.3c2.73-5.47,6.01-1.64,6.01-1.64,0,0,1.64-6.01,6.01-1.64-1.09-16.94-2.73-24.05,0-24.59,2.73-.55,5.47,22.95,5.47,22.95,0,0,5.46-22.41,8.74-22.95,3.28-.55-3.83,28.42-3.83,28.42,0,0,5.47,3.28,5.47,6.01s-9.84,8.74-9.84,8.74l-18.58,78.15-51.92-12.02Z"/>
            <path class="st5" d="M118.98,145.99l-1.63,2,24.58,6.77,26.6,6.16,5.32-22.38c-17.83,5-36.35,7.51-54.86,7.45Z"/>
            <path class="st15" d="M184.09,67.13c-.04-.06-.34-.59-.45-.88.14.03.3.04.44.08,1.31.36,2.62.74,3.92,1.11,1.2.34,1.72-1.53.52-1.87-.8-.23-1.59-.45-2.39-.68-.75-.21-1.51-.5-2.29-.58-.71-.08-1.43.15-1.85.76-.4.59-.38,1.33-.14,1.97.25.66.66,1.24,1.04,1.82.41.61.83,1.21,1.27,1.8.56.76,1.15,1.49,1.76,2.2-1.16.17-2.31.35-3.47.52-.04,0-.07.03-.1.05-.22-2.35-.44-4.7-.66-7.06-.12-1.23-2.06-1.25-1.94,0,.19,1.98.37,3.95.56,5.93.1,1.03.19,2.06.29,3.08.04.47.1.95.13,1.42.01.15.03.31.02.46-.09-.11-.22-.22-.26-.28-.24-.35-.43-.74-.64-1.11-.45-.81-.88-1.63-1.29-2.46-.83-1.68-1.58-3.41-2.24-5.16-.44-1.17-2.09-.72-1.87.52.33,1.83.66,3.66.98,5.49.15.86.35,1.73.47,2.6.02.16.05.49.01.55.03-.04.09.05-.12-.02-.12-.04-.22-.07-.32-.12-1.16-.57-1.99-2-2.54-3.1-.65-1.31-1.08-2.72-1.5-4.11-.36-1.19-2.23-.68-1.87.52.54,1.78,1.11,3.6,2.04,5.22.83,1.44,2.18,3.25,3.94,3.51.94.14,1.86-.31,2.19-1.23.23-.63.14-1.33.02-2,.33.65.68,1.29,1.07,1.89.53.81,1.4,1.62,2.46,1.37,1.03-.24,1.43-1.25,1.42-2.21-.01-.62-.07-1.25-.14-1.88.14.02.28.03.43,0,1.7-.26,3.4-.51,5.1-.77.77-.12.87-1.14.43-1.62-1.64-1.78-3.12-3.69-4.42-5.74ZM183.62,66.07s0,.03-.01.06c0-.04,0-.06.01-.06ZM183.5,66.24s-.15-.07.02,0c0,0,.02,0,.03,0-.03.04-.05.06-.05,0Z"/>
          </g>
          <g>
            <path class="st16" d="M307.88,128.12l-39.89,43.72s-38.8-10.93-98.37-4.92c-20.4,231.72-20.4,230.99-20.4,230.99l188.18-47.36,3.28-144.82s-14.21-8.74-18.03-9.84c3.83-46.45,4.37-55.74,4.37-55.74l-19.13-12.02Z"/>
            <g>
              <path class="st5" d="M324.44,353.6l4.2-23.82-71.54-2.16c-8.5,20.79-24.94,40.42-43.41,53.17l110.75-27.19Z"/>
              <path class="st5" d="M294.16,143.15c2.04,7.24,5.44,14.06,10.44,19.64,5.19,5.78,12.24,10.04,19.77,11.69,2.26-28.04,2.63-34.34,2.63-34.34l-15.23-9.57-6.19.06-11.42,12.52Z"/>
              <path class="st5" d="M327.02,198.62c-1.19,12.94-7.37,25.35-16.97,34.1-9.6,8.75-22.53,13.77-35.52,13.77l46.45,11.15,13.12-7.65,5.47-36.62-12.55-14.75Z"/>
            </g>
          </g>
          <g>
            <path class="st10" d="M263.07,170.75s-9.84,28.42-6.56,50.82c3.28,22.41,53.01,25.14,57.93,25.69,4.92.55,13.12-.55,14.21-14.76s-2.73-36.07-2.73-36.07l14.76,9.29s6.01,97.28-2.19,134.99c-47.55,14.76-117.5,3.83-130.61-6.56l19.67-108.21s8.74-2.73,13.66-20.22c4.92-17.49,9.29-38.26,9.29-38.26,0,0,10.93,2.73,12.57,3.28Z"/>
            <path class="st5" d="M335.86,341.49c1.26-3.39,2.78-7.46,4.46-11.96,5.35-42.83.35-123.81.35-123.81l-14.76-9.29s3.83,21.86,2.73,36.07-9.29,15.3-14.21,14.76c-1.25-.14-5.38-.42-10.89-1.12-1.63,8.59-3.45,17.27-7.75,24.86-4.57,8.07-12.53,14.83-21.79,15.44-1.51.1-3.11.06-4.42.82-1.57.91-2.32,2.75-2.98,4.44-7.08,18.3-15.84,35.95-26.13,52.66,27.21,4.58,65.34,5.72,95.38-2.87Z"/>
          </g>
          <g>
            <g>
              <path class="st12" d="M393.13,338.53l-7.65-95.09s-13.27-16.88-37.72-34.44c-.08,13.53-.57,59.58-3.81,80.89-2.82,18.53-8.91,47.75-11.91,61.84l48.53-11.01,12.57-2.19Z"/>
              <path class="st8" d="M347.76,209c-4.06-2.92-8.43-5.86-13.1-8.74,0,0-1.64,61.21-6.01,86.89-4.37,25.69-13.12,68.31-13.12,68.31l16.51-3.75c3-14.08,9.09-43.3,11.91-61.84,3.24-21.31,3.74-67.35,3.81-80.89Z"/>
            </g>
            <path class="st5" d="M342.35,349.38l38.22-8.67,5.46-86.35c-17.11,46-42.6,93.03-43.68,95.02Z"/>
          </g>
          <g>
            <g>
              <path class="st12" d="M230.09,165.49c-29.39-2.1-55.45.82-59.82,1.35l-2.29,7.19-65.06-16.77c-13.3,15.11-29.56,40.03-23.48,67.05,9.84,43.72,71.59,43.72,71.59,43.72,0,0-10.68,32.07-42.93,135.91,14.38-1.11,53.11-9.67,76.81-15.13,3.38-21.06,16.91-102.57,23.5-135.53,6.32-31.58,17.84-73.95,21.68-87.78Z"/>
              <path class="st8" d="M230.09,165.49c-3.83,13.83-15.36,56.2-21.68,87.78-6.59,32.96-20.12,115.2-23.5,136.26,11.44-2.63,19.37-4.55,19.37-4.55,0,0,15.6-112.59,23.8-148.66,8.2-36.07,16.4-69.41,16.4-69.41-4.83-.63-9.66-1.1-14.39-1.44Z"/>
              <path class="st8" d="M170.27,166.84c-.42.05-.65.08-.65.08l2.19-12.57-53.56-12.02s-7.1,5.59-15.32,14.93l65.06,16.77,2.29-7.19Z"/>
            </g>
            <path class="st5" d="M170.27,166.84l-2.29,7.19-.21-.05-14,65.63s25.69-13.66,47-40.99c12.75-16.34,17.67-27.4,19.57-33.66-25.22-.94-46.19,1.41-50.07,1.88Z"/>
          </g>
          <g>
            <path class="st16" d="M357.07,90.96s4.92,21.86-1.64,43.17c-6.56,21.31-39.35,21.31-46.45-.55,0,0-10.93,3.83-13.66-8.2s11.48-11.48,11.48-11.48c-2.73-18.03-3.28-21.86-3.28-21.86l53.01-5.47.55,4.37Z"/>
            <path class="st15" d="M348.32,92.05s-16.4,16.94-41.53,21.86c-10.38-22.41-8.2-26.23-8.2-26.23l56.84-7.1,1.64,10.38,2.19,16.4s-6.01-4.92-10.93-15.3Z"/>
            <g>
              <path class="st10" d="M357.61,76.75c-4.37-12.02-20.22-18.03-39.35-15.3-19.13,2.73-29.51,12.57-31.7,21.86-.95,4.02-1.28,8.55-1.35,12.4l75.6-8.56c-.73-2.91-1.75-6.41-3.2-10.4Z"/>
              <path class="st2" d="M322.09,94.78c12.8-1.25,28.27-2.67,39.8-2.75-.25-1.35-.6-2.99-1.07-4.88l-75.6,8.56c-.04,2.03,0,3.87.05,5.34,11.04-2.74,25.36-5.15,36.82-6.27Z"/>
            </g>
          </g>
          <g>
            <g>
              <path class="st16" d="M379.47,174.57l7.65,98.92,57.38-3.83s-13.12-59.57-51.92-97.82c-10.38-6.01-14.21-8.2-14.21-8.2,0,0-3.28-2.19-6.56-.55-3.28,1.64-3.83,3.83-.55,4.92,3.28,1.09,6.56,2.73,8.2,6.56Z"/>
              <path class="st5" d="M414.54,199.22c-6.17-9.58-13.44-18.99-21.95-27.38-10.38-6.01-14.21-8.2-14.21-8.2,0,0-3.28-2.19-6.56-.55-3.28,1.64-3.83,3.83-.55,4.92,3.28,1.09,6.56,2.73,8.2,6.56l1.1,14.23c7.25,6.14,16.37,10.09,25.85,10.84,2.69.21,5.48.15,8.11-.42Z"/>
            </g>
            <path class="st12" d="M442.32,264.2s4.37,17.49,1.64,38.26c-2.73,20.77-9.29,42.63-27.87,45.91-18.58,3.28-35.52-7.65-35.52-7.65l2.19-70.5,59.57-6.01Z"/>
            <polygon class="st9" points="374.01 152.17 388.76 190.97 398.6 188.24 384.94 151.62 374.01 152.17"/>
            <g>
              <g>
                <path class="st1" d="M390.82,112.08l-24.46,25.33-7.1-1.64s-5.47,6.56-3.83,11.48c1.64,4.92,5.47,8.2,8.2,9.29l2.73-2.73,44.34,5.16c-5.61-6.29-11.61-14.09-15.38-22.1-3.9-8.28-4.75-17.31-4.51-24.79Z"/>
                <path class="st9" d="M408.44,125.39c-7.4-23.25,3.08-34.74,3.79-35.48l-21.41,22.17c-.25,7.48.61,16.51,4.51,24.79,3.77,8.01,9.77,15.81,15.38,22.1l25.53,2.97c-9.68-6.17-21.77-17.64-27.79-36.54Z"/>
              </g>
              <path class="st15" d="M437.4,120.47c-9.29-27.87-25.14-30.6-25.14-30.6l-.04.04c-.71.74-11.18,12.24-3.79,35.48,6.02,18.91,18.11,30.38,27.79,36.54l.63.07s9.84-13.66.55-41.53Z"/>
            </g>
            <polygon class="st8" points="384.57 254.18 441.77 251.08 446.69 269.67 384.21 274.04 384.57 254.18"/>
            <g>
              <path class="st16" d="M399.15,160.91s-14.21,0-13.12,3.28,5.47,3.28,5.47,3.28c0,0-6.56,0-5.47,3.28,1.09,3.28,6.56,1.09,6.56,1.09,0,0-6.01,3.83-3.83,4.92,2.19,1.09,4.92,1.09,4.92,1.09,0,0-4.92,2.19-1.09,3.83,3.83,1.64,9.84-.55,9.84-.55,0,0,5.1-3.46-1.82-3.64,6.01-2.55.36-6.01.36-6.01,4.19-3.1-1.82-5.1-1.82-5.1,4.92-2.19,0-5.46,0-5.46Z"/>
              <path class="st15" d="M389.68,167.23c2.9-.35,5.82-.5,8.74-.44,1.25.03,1.25-1.92,0-1.94-2.92-.06-5.84.09-8.74.44-.52.06-.97.4-.97.97,0,.48.45,1.03.97.97h0Z"/>
              <path class="st15" d="M390.04,172.98c3.03-.27,6.07-.54,9.1-.81.52-.05.97-.41.97-.97,0-.49-.45-1.02-.97-.97-3.03.27-6.07.54-9.1.81-.52.05-.97.41-.97.97,0,.49.45,1.02.97.97h0Z"/>
              <path class="st15" d="M391.86,179.19c2.91-.15,5.83-.3,8.74-.45.52-.03.97-.43.97-.97,0-.5-.44-1-.97-.97-2.91.15-5.83.3-8.74.45-.52.03-.97.43-.97.97,0,.5.44,1,.97.97h0Z"/>
            </g>
          </g>
        </g>
      </g>
      <g>
        <path class="st9" d="M174.51,406.12c-8.56-8.55-18.01.05-13.58,7.18,3.29,5.29,17.74,13.62,17.92,13.39.26.14,10.11-13.33,10.97-19.49,1.16-8.32-10.95-12.36-15.32-1.07Z"/>
        <path class="st15" d="M229.25,417.61c-.16.03-.32.03-.49-.02l-4.66-1.44c-1.96,1.9-4.39,3.2-7.07,3.76-7.82,1.65-15.53-3.36-17.18-11.19-1.65-7.82,3.36-15.53,11.18-17.18,7.82-1.65,15.53,3.36,17.18,11.18.69,3.28.22,6.68-1.32,9.66l2.92,3.67c.27.33.28.8.04,1.15-.14.21-.36.35-.6.4ZM211.43,393.45c-6.77,1.43-11.12,8.11-9.69,14.88s8.11,11.12,14.88,9.69c2.49-.53,4.74-1.78,6.5-3.63.26-.27.64-.37.99-.26l2.22.68-1.37-1.72c-.25-.31-.28-.74-.08-1.09,1.56-2.69,2.06-5.84,1.42-8.87-1.43-6.77-8.11-11.12-14.88-9.69Z"/>
        <g>
          <path class="st15" d="M246.81,396.3c-.17.04-.35.03-.52-.03l-18.4-6.44c-.41-.14-.68-.54-.65-.98.03-.43.34-.8.77-.89l33.69-7.12c.33-.07.68.04.91.29.23.25.32.6.22.93l-.15.51c-.05.18-.16.34-.3.46l-15.14,13.05c-.13.11-.28.18-.43.21ZM231.81,389.14l14.59,5.11,12.59-10.86-27.18,5.75Z"/>
          <path class="st15" d="M253.37,412.79c-.05.01-.1.02-.15.02-.41.02-.79-.23-.95-.61l-6.56-16.49c-.15-.38-.05-.82.27-1.09l15.14-13.05c.33-.28.8-.31,1.16-.08.36.23.53.68.41,1.09l-8.58,29.54c-.1.35-.39.61-.73.68ZM247.76,395.64l5.26,13.22,6.88-23.68-12.14,10.46Z"/>
        </g>
      </g>
      <g>
        <path class="st1" d="M275.64,128.12l-17.35-20.38c5.16-5.86,8.29-13.55,8.29-21.97,0-18.39-14.91-33.3-33.3-33.3s-33.3,14.91-33.3,33.3,14.91,33.3,33.3,33.3c6.89,0,13.3-2.09,18.61-5.68l23.75,14.74Z"/>
        <path class="st7" d="M215.52,78.93s16.92-.3,17.02-.3c.35,0,1.74-11.38,1.65-12.25-.35-3.76,1.34-4.97,3.89-1.97,2.17,2.54,2.76,6.55,2.51,9.75,8.96.6,13.13,1.19,12.24,3.88l-.9,2.69s2.69,2.39,2.09,4.48c-.6,2.09-2.39,2.99-2.39,2.99,0,0,3.28,3.28,1.79,5.07s-2.99,2.09-2.99,2.09c0,0,2.39,2.69.3,4.18-2.09,1.49-35.82-.6-35.82-.6l.6-20Z"/>
      </g>
      <g>
        <circle class="st11" cx="98.7" cy="104.03" r="32.79"/>
        <path class="st7" d="M98.68,96.06c-6.85-10.2-17.95-3.49-14.94,4.49,2.23,5.92,15,17.05,15.23,16.86.23.19,12.69-11.29,14.76-17.27,2.79-8.06-8.49-14.46-15.05-4.08Z"/>
      </g>
      <g>
        <circle class="st11" cx="369.22" cy="387.67" r="32.79"/>
        <path class="st7" d="M354.84,381.46s14.16-.25,14.23-.25c.29,0,1.45-9.52,1.38-10.25-.3-3.15,1.12-4.15,3.26-1.65,1.82,2.13,2.31,5.47,2.1,8.15,7.49.5,10.99,1,10.24,3.25l-.75,2.25s2.25,2,1.75,3.75c-.5,1.75-2,2.5-2,2.5,0,0,2.75,2.75,1.5,4.24-1.25,1.5-2.5,1.75-2.5,1.75,0,0,2,2.25.25,3.5s-29.96-.5-29.96-.5l.5-16.73Z"/>
      </g>
      <g>
        <circle class="st11" cx="99.5" cy="315.96" r="26.92" transform="translate(-111.63 60.71) rotate(-22.12)"/>
        <path class="st7" d="M103.42,315.63c2.34-1.35,3.92-3.88,3.92-6.78,0-4.33-3.51-7.83-7.83-7.83s-7.83,3.51-7.83,7.83c0,2.91,1.59,5.44,3.94,6.79-10.63,2.06-11.22,12.34-11.22,12.34h30.24s-.53-10.31-11.2-12.35Z"/>
      </g>
    </g>
  </g>
</svg>