<svg xmlns="http://www.w3.org/2000/svg" viewBox="0 0 576.42 62.22"><defs><style>.cls-1{fill:#3e8dff;}</style></defs><g id="Layer_2" data-name="Layer 2"><g id="Layer_1-2" data-name="Layer 1"><path class="cls-1" d="M26.09,40.88V18.33a11.38,11.38,0,0,1,5.67,6.28H42.88q-1.1-6.39-7-11.44a20.33,20.33,0,0,0-9.77-4.73V0H17.51V8.38C7.49,10.26,0,19.19,0,29,0,35.25,1.91,40.52,6.4,44.9a21.24,21.24,0,0,0,11.11,5.83V62.22l4.29-5,4.29,5V50.74A21.41,21.41,0,0,0,42.88,34.8H31.76A12.08,12.08,0,0,1,26.09,40.88ZM10.61,29.47a12.11,12.11,0,0,1,6.9-11.28V40.94C13.3,39.11,10.61,34.62,10.61,29.47Z"></path><path class="cls-1" d="M47.55,32c0-12.59,9.08-22,21.45-22,11.88,0,21.5,9.19,21.5,20.85a21,21,0,0,1-21,21.39C58.17,52.2,47.55,44.06,47.55,32Zm32.56-.87c0-6.38-4.57-12-11.11-12S58,24.54,58,31c0,6.71,4.56,12.1,11.22,12.1C75.6,43.07,80.11,37.62,80.11,31.14Z"></path><path class="cls-1" d="M96.12,51.43V10.73h10.39v40.7Z"></path><path class="cls-1" d="M139.18,51.43,123.56,26.57l.28,24.86h-10V10.73h9l15.83,25.74-.44-25.74h10v40.7Z"></path><path class="cls-1" d="M171.57,22.61c-.44-2.91-1.65-4-3.68-4a3.4,3.4,0,0,0-3.57,3.19c0,2.42,2.2,3.52,6.65,5.45,9,3.85,11.22,7.09,11.22,12.42,0,7.87-5.39,12.49-14.19,12.49s-14.68-4.62-14.68-13.37V38h10.34c.05,3.36,1.7,5.56,4.29,5.56a3.89,3.89,0,0,0,3.9-3.91c0-3.24-4.51-4.67-8.19-6.15C157,30.75,154,27.23,154,22c0-6.93,6.71-12,14.19-12a15.49,15.49,0,0,1,7.2,1.71c4.34,2.25,6.43,5.5,6.49,10.94Z"></path><path class="cls-1" d="M204.14,51.43V10.73h22.21v9.13H214.09v6.93h11.82v9.13H214.09V51.43Z"></path><path class="cls-1" d="M230.21,32c0-12.59,9.07-22,21.44-22,11.88,0,21.51,9.19,21.51,20.85a21,21,0,0,1-21,21.39C240.82,52.2,230.21,44.06,230.21,32Zm32.55-.87c0-6.38-4.56-12-11.11-12S240.6,24.54,240.6,31c0,6.71,4.56,12.1,11.22,12.1C258.25,43.07,262.76,37.62,262.76,31.14Z"></path><path class="cls-1" d="M298.24,51.43l-9.41-13.15h-.11V51.43h-10V10.73h13.31c4.23,0,7.48.55,9.62,1.49,4.4,2,7.48,6.76,7.48,12.54,0,6.43-3.85,11.71-10.12,12.81l11.06,13.86Zm-5.67-20.24c4.13,0,6.66-1.92,6.66-5.83,0-3.52-2.64-5.5-6.55-5.5h-4V31.19Z"></path><path class="cls-1" d="M361.16,26.19a10.64,10.64,0,0,0-9.85-7.1c-6.49,0-10.89,5.56-10.89,11.88,0,6.6,4.51,12.1,10.95,12.1,4.12,0,7.64-2.31,9.79-6.88H372a21.45,21.45,0,0,1-35.74,9.9C331.9,41.8,330,36.63,330,30.48,330,19.7,339.32,10,351,10a20.65,20.65,0,0,1,14.19,5c3.85,3.3,6.16,7,6.87,11.22Z"></path><path class="cls-1" d="M375.68,32c0-12.59,9.07-22,21.45-22,11.87,0,21.5,9.19,21.5,20.85a21,21,0,0,1-21,21.39C386.29,52.2,375.68,44.06,375.68,32Zm32.55-.87c0-6.38-4.56-12-11.1-12S386.07,24.54,386.07,31c0,6.71,4.57,12.1,11.22,12.1C403.72,43.07,408.23,37.62,408.23,31.14Z"></path><path class="cls-1" d="M424.52,51.43V10.73h10.39V42.3h12v9.13Z"></path><path class="cls-1" d="M451.3,51.43V10.73h10.4V42.3h12v9.13Z"></path><path class="cls-1" d="M477.81,51.43V10.73h22.61v9.13H487.77v6.33H500v9.12H487.77v7h12.65v9.13Z"></path><path class="cls-1" d="M548.43,30.59c0,10.94-8,21.66-21.72,21.66a21.31,21.31,0,0,1-21.62-21.33c0-12.32,10-21,21.78-21,9.18,0,18,6.22,20.35,14.41H535.56a10,10,0,0,0-9-5.28c-6.55,0-11.11,5.28-11.11,11.83,0,6.76,4.29,12.2,11.16,12.2,4.84,0,8.47-2.36,9.73-6.54H524.23v-8.3h24.2Z"></path><path class="cls-1" d="M553.82,51.43V10.73h22.6v9.13H563.78v6.33H576v9.12H563.78v7h12.64v9.13Z"></path></g></g></svg>